<?xml version="1.0"?>
<svg xmlns="http://www.w3.org/2000/svg" xmlns:xlink="http://www.w3.org/1999/xlink" xmlns:svgjs="http://svgjs.com/svgjs" version="1.1" width="60" height="60" x="0" y="0" viewBox="0 0 512 512" style="enable-background:new 0 0 512 512" xml:space="preserve" class=""><g><g xmlns="http://www.w3.org/2000/svg"><path d="m60.031 177.497 52.692 298.832c3.638 20.63 21.563 35.671 42.512 35.671h182.162c20.949 0 38.874-15.041 42.512-35.672l52.692-298.832c2.756-15.63-9.268-29.96-25.14-29.96h-322.29c-15.872.001-27.896 14.33-25.14 29.961z" fill="#ccfff3" data-original="#fbf1cf" style="" class=""/><g fill="#fae0bd"><path d="m261.334 458.333h-151.784l3.173 17.995c3.638 20.631 21.563 35.672 42.512 35.672h52.432z" fill="#0049a4" data-original="#fae0bd" style="" class=""/><path d="m324.031 458.333-53.667 53.667h67.033c20.949 0 38.874-15.041 42.512-35.672l3.173-17.995z" fill="#0049a4" data-original="#fae0bd" style="" class=""/></g><path d="m417.715 261.922c-8.98 50.927-83.609 41.287-163.754 8.428-85.705-35.139-182.543-28.284-172.88 26.524l28.47 161.459h273.532z" fill="#ceeafb" data-original="#ceeafb" style=""/><path d="m417.715 261.921c-8.98 50.928-83.609 41.288-163.754 8.429 69.421-83.444 172.734-59.357 163.754-8.429z" fill="#a3defe" data-original="#a3defe" style="" class=""/><path d="m452.363 58.137c0-32.167-26.125-58.233-58.314-58.137-33.159.099-59.136 28.539-57.895 61.674 1.331 35.514 22.403 56.426 28.299 91.295 2.18 12.892 17.842 18.134 27.369 9.18 25.876-24.318 60.541-64.878 60.541-104.012z" fill="#ceeafb" data-original="#ceeafb" style=""/><path d="m365.066 8.051c-18.015 10.758-29.755 31.101-28.911 53.624 1.331 35.514 22.403 56.426 28.299 91.295 2.18 12.892 17.842 18.134 27.369 9.18 11.176-10.504 23.988-24.041 34.942-39.181-40.903-5.553-77.909-85.409-61.699-114.918z" fill="#a3defe" data-original="#a3defe" style="" class=""/><path d="m191.271 458.333c-31.305-77.683-42.998-207.818-39.078-310.796h-67.022c-15.871 0-27.896 14.33-25.14 29.96l49.519 280.836z" fill="#0049a4" data-original="#fae0bd" style="" class=""/><path d="m81.081 296.874 28.47 161.459h81.713c-21.602-53.61-33.862-132.2-38.098-209.605-45.401-.321-77.877 15.295-72.085 48.146z" fill="#a3defe" data-original="#a3defe" style="" class=""/><g><path d="m194.851 377.162c-.042 13.236-13.549 23.923-30.169 23.871s-30.06-10.823-30.019-24.059 13.548-23.923 30.169-23.871c16.621.051 30.06 10.823 30.019 24.059z" fill="#ffffff" data-original="#ffffff" style=""/><path d="m297.781 377.484c-.041 13.236 13.398 24.007 30.018 24.059s30.127-10.635 30.169-23.87c.042-13.236-13.398-24.008-30.018-24.06s-30.127 10.635-30.169 23.871z" fill="#ffffff" data-original="#ffffff" style=""/><g fill="#565e75"><path d="m270.637 358.986c.047-14.995-10.811-16.438-24.212-16.48-13.4-.042-24.267 1.333-24.314 16.328s10.778 27.184 24.178 27.226c13.4.041 24.301-12.08 24.348-27.074z" fill="#565e75" data-original="#565e75" style="" class=""/><path d="m196.702 358.589c-.009 0-.017 0-.025 0-4.142-.013-7.489-3.382-7.476-7.524.006-1.823-.698-3.538-1.983-4.831-1.284-1.293-2.996-2.008-4.818-2.014-.007 0-.015 0-.021 0-1.815 0-3.522.704-4.811 1.984-1.293 1.285-2.008 2.996-2.014 4.818-.013 4.134-3.368 7.477-7.499 7.477-.009 0-.016 0-.024 0-4.142-.013-7.489-3.381-7.477-7.523.018-5.83 2.306-11.303 6.44-15.413 4.118-4.092 9.579-6.344 15.383-6.344h.069c5.83.019 11.303 2.306 15.412 6.44 4.108 4.135 6.361 9.623 6.343 15.452-.014 4.136-3.369 7.478-7.499 7.478z" fill="#565e75" data-original="#565e75" style="" class=""/><path d="m324.743 358.99c-.009 0-.016 0-.024 0-4.142-.013-7.489-3.381-7.477-7.523.006-1.823-.699-3.539-1.983-4.832-1.285-1.293-2.996-2.008-4.819-2.014-3.758.023-6.834 3.04-6.846 6.803-.014 4.134-3.369 7.476-7.499 7.476-.009 0-.017 0-.025 0-4.142-.013-7.489-3.382-7.475-7.524.039-12.01 9.822-21.755 21.823-21.755h.069c5.829.018 11.303 2.305 15.412 6.44 4.108 4.135 6.361 9.623 6.344 15.452-.014 4.134-3.369 7.477-7.5 7.477z" fill="#565e75" data-original="#565e75" style="" class=""/></g></g></g></g></svg>
